<svg xmlns="http://www.w3.org/2000/svg" version="1.2" viewBox="0 0 512 161" width="512" height="161">
	<style>
		.s0 { paint-order:stroke fill markers;stroke: #0f0f0f;stroke-width: 10;stroke-linejoin: round;;fill: #0f0f0f } 
	</style>
	<path id="RICE" class="s0" aria-label="RICE" d="m58.3 152h-29v-142.5h59.2q16.2 0 28.5 5.4 12.6 5.1 19.7 15.3 7.1 9.9 7.1 24.3 0 14.7-8 25.2-7.7 10.2-20.9 15.2l36.5 57.1h-32.9l-39.1-62.5 18.9 9.9h-40zm0-119.5v44h30.6q7.8 0 13.4-2.7 5.9-2.8 9-7.7 3.4-5 3.4-11.6 0-6.7-3.4-11.5-3.1-5-9-7.7-5.6-2.8-13.4-2.8zm135 119.5h-29.1v-142.5h29.1zm98.7 2.3q-17 0-31.6-5.4-14.4-5.6-25.2-15.4-10.7-10.1-16.8-23.4-5.9-13.5-5.9-29.4 0-15.9 5.9-29.3 6-13.5 16.6-23.3 10.9-10 25.2-15.3 14.6-5.6 31.8-5.6 17 0 30.5 5.2 13.6 5.1 22.8 13.8 9.6 8.3 13.6 18.5l-25.9 11q-4.5-10.8-15.2-17.7-10.7-7.1-25.8-7.1-14.9 0-26.5 6.3-11.3 6.3-17.7 17.5-6.2 11.1-6.2 26 0 14.9 6.2 26.2 6.4 11.2 17.7 17.6 11.6 6.1 26.5 6.1 15.1 0 25.8-6.9 10.7-7 15.2-17.8l25.9 11q-4 10.1-13.6 18.7-9.2 8.4-22.8 13.5-13.5 5.2-30.5 5.2zm190-2.3h-105.8v-142.5h105.8v23h-76.7v36.6h72.4v22.9h-72.4v37.1h76.7z"/>
</svg>